<?xml version="1.0" encoding="UTF-8" standalone="no"?>
<svg
   xmlns:dc="http://purl.org/dc/elements/1.1/"
   xmlns:cc="http://creativecommons.org/ns#"
   xmlns:rdf="http://www.w3.org/1999/02/22-rdf-syntax-ns#"
   xmlns:svg="http://www.w3.org/2000/svg"
   xmlns="http://www.w3.org/2000/svg"
   xmlns:sodipodi="http://sodipodi.sourceforge.net/DTD/sodipodi-0.dtd"
   xmlns:inkscape="http://www.inkscape.org/namespaces/inkscape"
   width="64"
   height="64"
   viewBox="0 0 100 100"
   version="1.1"
   id="svg8"
   inkscape:version="1.0.1 (c497b03c, 2020-09-10)"
   sodipodi:docname="printer.svg">
  <defs
     id="defs2" />
  <sodipodi:namedview
     id="base"
     pagecolor="#ffffff"
     bordercolor="#666666"
     borderopacity="1.0"
     inkscape:pageopacity="0.0"
     inkscape:pageshadow="2"
     inkscape:zoom="0.4665165"
     inkscape:cx="84.143728"
     inkscape:cy="-0.54042733"
     inkscape:document-units="mm"
     inkscape:current-layer="layer1"
     inkscape:document-rotation="0"
     showgrid="false"
     units="px"
     inkscape:window-width="1438"
     inkscape:window-height="855"
     inkscape:window-x="0"
     inkscape:window-y="23"
     inkscape:window-maximized="0"
     inkscape:snap-global="true" />
  <metadata
     id="metadata5">
    <rdf:RDF>
      <cc:Work
         rdf:about="">
        <dc:format>image/svg+xml</dc:format>
        <dc:type
           rdf:resource="http://purl.org/dc/dcmitype/StillImage" />
        <dc:title></dc:title>
      </cc:Work>
    </rdf:RDF>
  </metadata>
  <g
     inkscape:label="Layer 1"
     inkscape:groupmode="layer"
     id="layer1">
    <path
       id="path1085"
       style="fill:#ffffff;stroke-width:0.378653"
       d="m 41.506931,7.8085662 c -8.201522,0.0071 -12.930801,0.107758 -13.572342,0.2950852 -2.493415,0.7280655 -4.669663,2.4359876 -5.869121,4.6059566 -2.10527,3.808674 -1.025533,7.16424 -1.325286,11.521551 l -0.189326,9.466327 -3.041797,0.226305 c -4.348116,0.323814 -6.969969,1.941771 -8.6668632,5.346995 -2.1434352,4.301306 -0.5435955,9.324909 -0.9762147,14.013857 -2.4e-6,9.96698 0.1005121,12.29506 0.5798105,13.442181 1.5716194,3.761419 4.5610784,5.736616 9.2614684,6.119093 l 2.843596,0.231481 0.189326,6.247775 c 0.179069,5.909243 0.243593,6.3401 1.194384,7.951713 1.198846,2.032064 2.260641,3.053074 4.290168,4.125245 1.48312,0.783336 1.879764,0.796987 23.775266,0.788369 21.8955,0.0086 22.292146,-0.005 23.775266,-0.788369 2.029527,-1.072168 3.091323,-2.093181 4.290169,-4.125245 0.950786,-1.611613 1.015316,-2.04247 1.194384,-7.951713 l 0.189327,-6.247775 2.843593,-0.231481 c 4.700391,-0.382477 7.689852,-2.357674 9.261469,-6.119093 0.479299,-1.147121 0.579813,-3.475201 0.579813,-13.442181 -0.432619,-4.688948 1.167216,-9.712551 -0.976217,-14.013857 -1.696896,-3.405224 -4.31875,-5.023181 -8.666862,-5.346995 L 79.449146,33.697486 79.259819,24.231159 C 78.960067,19.873848 80.039803,16.518285 77.934534,12.709608 76.735075,10.539639 74.558827,8.8317217 72.065412,8.1036514 71.423871,7.9163242 66.694593,7.8156667 58.493069,7.8085662 56.006107,7.8063851 53.10834,7.8154728 50,7.8307643 46.89166,7.8154728 43.993897,7.8064094 41.506931,7.8085662 Z M 29.506886,14.196855 H 50 70.493117 c 1.015044,0 2.329601,0.94552 2.329601,1.960567 v 8.868024 8.867282 L 50.008876,33.795107 H 50 49.9911 l -22.813841,0.09762 v -8.867282 -8.868024 c 0,-1.015047 1.314556,-1.960567 2.329603,-1.960567 z m 49.381676,25.828278 a 5.4596479,5.4596479 0 0 1 5.460145,5.459407 5.4596479,5.4596479 0 0 1 -5.460145,5.460146 5.4596479,5.4596479 0 0 1 -5.459408,-5.460146 5.4596479,5.4596479 0 0 1 5.459408,-5.459407 z m -51.711279,16.574943 22.813841,0.09762 H 50 50.0089 l 22.813841,-0.09762 v 13.663309 13.664049 c 0,1.043526 -1.169961,2.213493 -2.213492,2.213493 H 50 29.390776 c -1.043531,0 -2.213493,-1.169967 -2.213493,-2.213493 V 70.263385 Z m 6.815752,6.821671 v 3.029224 3.029224 H 50 66.006965 V 66.450971 63.421747 H 50 Z m 0,9.466325 v 3.21855 3.218551 H 45.163299 50 h 4.836701 2.082592 v -3.218551 -3.21855 H 54.836701 50 45.163299 Z" />
  </g>
</svg>
