<?xml version="1.0" encoding="UTF-8" standalone="no"?>
<svg
   xmlns:dc="http://purl.org/dc/elements/1.1/"
   xmlns:cc="http://creativecommons.org/ns#"
   xmlns:rdf="http://www.w3.org/1999/02/22-rdf-syntax-ns#"
   xmlns:svg="http://www.w3.org/2000/svg"
   xmlns="http://www.w3.org/2000/svg"
   xmlns:sodipodi="http://sodipodi.sourceforge.net/DTD/sodipodi-0.dtd"
   xmlns:inkscape="http://www.inkscape.org/namespaces/inkscape"
   version="1.1"
   x="0px"
   y="0px"
   viewBox="0 0 100 100"
   xml:space="preserve"
   id="svg1276"
   width="1024"
   height="1024"
   sodipodi:docname="pumpkin.svg"
   inkscape:version="1.0.1 (c497b03c, 2020-09-10)"><metadata
   id="metadata848"><rdf:RDF><cc:Work
       rdf:about=""><dc:format>image/svg+xml</dc:format><dc:type
         rdf:resource="http://purl.org/dc/dcmitype/StillImage" /></cc:Work></rdf:RDF></metadata><defs
   id="defs846" /><sodipodi:namedview
   pagecolor="#ffffff"
   bordercolor="#666666"
   borderopacity="1"
   objecttolerance="10"
   gridtolerance="10"
   guidetolerance="10"
   inkscape:pageopacity="0"
   inkscape:pageshadow="2"
   inkscape:window-width="1440"
   inkscape:window-height="752"
   id="namedview844"
   showgrid="false"
   inkscape:zoom="0.7184354"
   inkscape:cx="521.80934"
   inkscape:cy="373.83188"
   inkscape:window-x="0"
   inkscape:window-y="23"
   inkscape:window-maximized="0"
   inkscape:current-layer="layer1"
   inkscape:document-rotation="0" />
   <g
   id="layer1"
   style="display:inline"
   transform="translate(-242.08141,-16.26103)">
     <path
   style="fill:#326d32;fill-opacity:1;stroke:none;stroke-width:0.0976562px;stroke-linecap:butt;stroke-linejoin:miter;stroke-opacity:1"
   d="m 283.66367,41.276651 c 0,0 5.69913,-7.018808 4.55296,-10.745463 -0.3731,-1.213102 3.82588,-1.744078 4.73464,-0.807305 3.90298,4.023252 -0.0807,8.018552 6.04574,11.000546 3.72396,1.812596 -13.51101,2.540219 -15.33334,0.552222 z"
   id="path847"
   sodipodi:nodetypes="csssc" /><path
   style="fill:#205620;fill-opacity:1;stroke:none;stroke-width:0.0976562px;stroke-linecap:butt;stroke-linejoin:miter;stroke-opacity:1"
   d="m 288.06557,30.074936 c 0,0 0.57951,4.346556 -2.43676,8.242573 -3.01627,3.896014 -1.96514,2.959145 -1.96514,2.959145 0,0 2.9991,2.053939 6.7409,2.382168 3.58182,0.314194 -0.94258,-3.518983 1.25679,-7.666354 1.88785,-3.559945 -0.56556,-5.404152 -0.56556,-5.404152 z"
   id="path849"
   sodipodi:nodetypes="cscsscc" /><path
   id="circle1023"
   style="fill:#428442;stroke-width:0.414833"
   d="m 293.14367,30.087634 a 2.5394256,0.95295457 0 0 1 -2.53945,0.952953 2.5394256,0.95295457 0 0 1 -2.53941,-0.952953 2.5394256,0.95295457 0 0 1 2.53941,-0.952955 2.5394256,0.95295457 0 0 1 2.53945,0.952955 z"
   class="st28" /><path
   class="st22"
   d="m 291.74278,77.001468 c 0,21.033613 -10.69579,34.016672 -23.88854,34.016672 -13.19276,0 -23.88854,-12.9856 -23.88854,-34.016672 0,-21.031073 10.69578,-31.475455 23.88854,-31.475455 13.19275,0 23.88854,10.444382 23.88854,31.475455 z"
   id="path1003"
   style="fill:#fcb138;fill-opacity:1;stroke-width:0.254847" />
     <path
   class="st23"
   d="m 340.20224,77.001468 c 0,21.033613 -10.69579,34.016672 -23.88854,34.016672 -13.19275,0 -23.88854,-12.9856 -23.88854,-34.016672 0,-21.031073 10.69579,-31.475455 23.88854,-31.475455 13.19275,0 23.88854,10.444382 23.88854,31.475455 z"
   id="path1005"
   style="fill:#ff7a0d;fill-opacity:1;stroke-width:0.254847" />
     <path
   id="ellipse1007"
   style="fill:#ff8a0b;stroke-width:0.254847"
   d="M 329.95882,77.001468 A 23.888541,36.557879 0 0 1 306.07028,113.55935 23.888541,36.557879 0 0 1 282.18174,77.001468 23.888541,36.557879 0 0 1 306.07028,40.443589 23.888541,36.557879 0 0 1 329.95882,77.001468 Z"
   class="st24" />
     <path
   id="ellipse1009"
   style="fill:#ffa124;stroke-width:0.254847"
   d="M 301.73318,77.001468 A 23.888541,36.557879 0 0 1 277.84464,113.55935 23.888541,36.557879 0 0 1 253.9561,77.001468 23.888541,36.557879 0 0 1 277.84464,40.443589 23.888541,36.557879 0 0 1 301.73318,77.001468 Z"
   class="st25" />
     
     
     <path
   id="ellipse1025"
   style="fill:#fc9917;stroke-width:0.254847"
   d="M 315.47031,77.001468 A 23.888541,38.082606 0 0 1 291.58177,115.08407 23.888541,38.082606 0 0 1 267.69323,77.001468 23.888541,38.082606 0 0 1 291.58177,38.918862 23.888541,38.082606 0 0 1 315.47031,77.001468 Z"
   class="st29" />
     <path
   id="path1051"
   style="opacity:0.06;stroke-width:2.60963"
   d="M 298.87891 829.35156 C 298.87891 829.35156 277.54969 949.72958 182.91602 870.88281 C 182.91602 870.88281 140.93769 928.24194 111.10742 901.19141 C 152.97642 945.93655 206.09758 970.3125 263.91406 970.3125 C 267.9669 970.3125 271.99545 970.18521 276 969.94727 A 244.61866 374.35268 0 0 0 366.21484 996.33398 A 244.61866 374.35268 0 0 0 420.68555 986.93359 A 244.61866 389.96589 0 0 0 506.88281 1011.9473 A 244.61866 389.96589 0 0 0 595.95898 985.17383 A 244.61866 374.35268 0 0 0 655.24609 996.33398 A 244.61866 374.35268 0 0 0 745.72852 969.7832 C 750.4979 970.12208 755.29983 970.3125 760.13867 970.3125 C 823.25633 970.3125 880.78912 941.28455 924.18164 888.39453 C 895.13314 907.08697 861.62891 829.35156 861.62891 829.35156 C 796.82998 927.68876 714.96875 829.35156 714.96875 829.35156 C 487.59662 1058.8137 298.87891 829.35156 298.87891 829.35156 z M 105.31836 894.61523 L 105.28125 894.75586 C 105.61004 895.13183 105.9412 895.5036 106.27148 895.87695 C 105.95291 895.46248 105.63302 895.05326 105.31836 894.61523 z "
   transform="matrix(0.09765625,0,0,0.09765625,242.08141,16.26103)" />
     
    </g>
</svg>
