<?xml version="1.0" encoding="UTF-8" standalone="no"?>
<svg
   xmlns:dc="http://purl.org/dc/elements/1.1/"
   xmlns:cc="http://creativecommons.org/ns#"
   xmlns:rdf="http://www.w3.org/1999/02/22-rdf-syntax-ns#"
   xmlns:svg="http://www.w3.org/2000/svg"
   xmlns="http://www.w3.org/2000/svg"
   xmlns:sodipodi="http://sodipodi.sourceforge.net/DTD/sodipodi-0.dtd"
   xmlns:inkscape="http://www.inkscape.org/namespaces/inkscape"
   version="1.1"
   x="0px"
   y="0px"
   viewBox="0 0 100 100"
   xml:space="preserve"
   id="svg1276"
   width="1024"
   height="1024"
   sodipodi:docname="pumpkin_faces.svg"
   inkscape:version="1.0.1 (c497b03c, 2020-09-10)"><metadata
   id="metadata848"><rdf:RDF><cc:Work
       rdf:about=""><dc:format>image/svg+xml</dc:format><dc:type
         rdf:resource="http://purl.org/dc/dcmitype/StillImage" /></cc:Work></rdf:RDF></metadata><defs
   id="defs846" /><sodipodi:namedview
   pagecolor="#ffffff"
   bordercolor="#666666"
   borderopacity="1"
   objecttolerance="10"
   gridtolerance="10"
   guidetolerance="10"
   inkscape:pageopacity="0"
   inkscape:pageshadow="2"
   inkscape:window-width="1440"
   inkscape:window-height="854"
   id="namedview844"
   showgrid="false"
   inkscape:zoom="0.66245342"
   inkscape:cx="241.86216"
   inkscape:cy="219.68463"
   inkscape:window-x="-8"
   inkscape:window-y="23"
   inkscape:window-maximized="0"
   inkscape:current-layer="layer10"
   inkscape:document-rotation="0"
   showguides="false" />
   
<g
   inkscape:groupmode="layer"
   id="layer2"
   inkscape:label="pumpkin"
   style="display:inline"><g
     id="layer1"
     style="display:inline"
     transform="translate(-242.08141,-16.261033)"><path
       class="st22"
       d="m 291.74278,77.001468 c 0,21.033613 -10.69579,34.016662 -23.88854,34.016662 -13.19276,0 -23.88854,-12.98559 -23.88854,-34.016662 0,-21.031073 10.69578,-31.475455 23.88854,-31.475455 13.19275,0 23.88854,10.444382 23.88854,31.475455 z"
       id="path1003"
       style="fill:#fcb138;fill-opacity:1;stroke-width:0.254847" /><path
       class="st23"
       d="m 340.20224,77.001468 c 0,21.033613 -10.69579,34.016662 -23.88854,34.016662 -13.19275,0 -23.88854,-12.98559 -23.88854,-34.016662 0,-21.031073 10.69579,-31.475455 23.88854,-31.475455 13.19275,0 23.88854,10.444382 23.88854,31.475455 z"
       id="path1005"
       style="fill:#ff7a0d;fill-opacity:1;stroke-width:0.254847" /><path
       id="ellipse1007"
       style="fill:#ff8a0b;stroke-width:0.254847"
       d="M 329.95882,77.001468 A 23.888541,36.557879 0 0 1 306.07028,113.55935 23.888541,36.557879 0 0 1 282.18174,77.001468 23.888541,36.557879 0 0 1 306.07028,40.443589 23.888541,36.557879 0 0 1 329.95882,77.001468 Z"
       class="st24" /><path
       id="ellipse1009"
       style="fill:#ffa124;stroke-width:0.254847"
       d="M 301.73318,77.001468 A 23.888541,36.557879 0 0 1 277.84464,113.55935 23.888541,36.557879 0 0 1 253.9561,77.001468 23.888541,36.557879 0 0 1 277.84464,40.443589 23.888541,36.557879 0 0 1 301.73318,77.001468 Z"
       class="st25" /><path
       class="st26"
       d="m 282.26608,41.981022 c 0,0 7.99437,-8.444448 7.99437,-10.431676 0,-1.987228 -5.66098,-7.948912 -2.99789,-11.755647 0.93284,-1.331596 1.55133,-2.050759 2.10338,-2.256597 1.02485,-0.378641 1.62034,0.742034 1.18586,1.387502 -0.66705,0.993614 -2.12382,3.684758 -0.6236,4.678372 1.49766,0.993614 6.32802,3.476378 6.32802,5.133248 0,1.656871 -3.66238,6.787578 2.66564,11.260112 6.32803,4.469992 -12.48992,5.133248 -13.82146,3.476378 -1.33666,-1.656871 -2.83432,-1.491692 -2.83432,-1.491692 z"
       id="path1011"
       style="fill:#326d32;fill-opacity:1;stroke-width:0.254847" /><path
       id="path893"
       style="fill:#205620;fill-opacity:1;stroke-width:2.60963"
       d="m 479.93555,15.541016 c -4.64774,3.57078 -10.03954,10.295522 -17.28125,20.632812 -27.27004,38.980967 30.69922,100.029692 30.69922,120.378902 0,20.34785 -81.85035,106.80677 -81.86133,106.81836 v 0.002 c 6.5e-4,-7e-5 0.22062,-0.0118 0.32617,-0.0195 1.03626,-0.1334 72.15971,-9.3009 71.30273,-13.51172 -0.86364,-4.2416 42.63081,-75.46444 41.76758,-107.67969 -0.83753,-32.21526 -41.76727,-26.28147 -53.70117,-61.046876 -11.96001,-34.765414 9.36756,-39.84136 16.82617,-49.599609 4.19373,-5.486672 -1.92088,-11.639097 -8.07812,-15.974609 z"
       transform="matrix(0.09765625,0,0,0.09765625,242.08141,16.26103)" /><path
       id="ellipse1025"
       style="fill:#fc9917;stroke-width:0.254847"
       d="M 315.47031,77.001468 A 23.888541,38.082606 0 0 1 291.58177,115.08407 23.888541,38.082606 0 0 1 267.69323,77.001468 23.888541,38.082606 0 0 1 291.58177,38.918862 23.888541,38.082606 0 0 1 315.47031,77.001468 Z"
       class="st29" /><path
       id="path1051"
       style="opacity:0.06;stroke-width:2.60963"
       d="m 298.87891,829.35156 c 0,0 -21.32922,120.37802 -115.96289,41.53125 0,0 -41.97833,57.35913 -71.8086,30.3086 41.869,44.74514 94.99016,69.12109 152.80664,69.12109 4.05284,0 8.08139,-0.12729 12.08594,-0.36523 a 244.61866,374.35268 0 0 0 90.21484,26.38671 244.61866,374.35268 0 0 0 54.47071,-9.40039 244.61866,389.96589 0 0 0 86.19726,25.01371 244.61866,389.96589 0 0 0 89.07617,-26.77347 244.61866,374.35268 0 0 0 59.28711,11.16015 244.61866,374.35268 0 0 0 90.48243,-26.55078 c 4.76938,0.33888 9.57131,0.5293 14.41015,0.5293 63.11766,0 120.65045,-29.02795 164.04297,-81.91797 -29.0485,18.69244 -62.55273,-59.04297 -62.55273,-59.04297 -64.79893,98.3372 -146.66016,0 -146.66016,0 -227.37213,229.46214 -416.08984,0 -416.08984,0 z m -193.56055,65.26367 -0.0371,0.14063 c 0.32879,0.37597 0.65995,0.74774 0.99023,1.12109 -0.31857,-0.41447 -0.63846,-0.82369 -0.95312,-1.26172 z"
       transform="matrix(0.09765625,0,0,0.09765625,242.08141,16.26103)" /><path
       id="circle1023"
       style="fill:#428442;stroke-width:0.254847"
       d="m 290.69748,18.385862 a 0.95840408,0.95295457 0 0 1 -0.95841,0.952954 0.95840408,0.95295457 0 0 1 -0.9584,-0.952954 0.95840408,0.95295457 0 0 1 0.9584,-0.952955 0.95840408,0.95295457 0 0 1 0.95841,0.952955 z"
       class="st28" /></g></g><g
   inkscape:groupmode="layer"
   id="layer3"
   inkscape:label="face1"
   style="display:none"
   sodipodi:insensitive="true"><path
     id="path944"
     style="fill:#000000;fill-opacity:1;stroke-width:0.9"
     d="m 324.29297,430.75 a 67.690957,67.690957 0 0 0 -67.68945,67.69141 67.690957,67.690957 0 0 0 67.68945,67.6914 67.690957,67.690957 0 0 0 67.69141,-67.6914 A 67.690957,67.690957 0 0 0 324.29297,430.75 Z m 362.90039,0 a 67.690957,67.690957 0 0 0 -67.69141,67.69141 67.690957,67.690957 0 0 0 67.69141,67.6914 67.690957,67.690957 0 0 0 67.68945,-67.6914 A 67.690957,67.690957 0 0 0 687.19336,430.75 Z"
     transform="scale(0.09765625)" /><path
     style="fill:#000000;fill-opacity:1;stroke:#000000;stroke-width:0.0976562px;stroke-linecap:butt;stroke-linejoin:miter;stroke-opacity:1"
     d="m 49.289006,52.775781 c -1.830363,1.352183 -3.560814,4.726258 -3.666764,6.951195 l 3.720379,-2.377107 c 0,0 1.929466,1.58011 3.802032,2.271158 0,0 -1.045611,-5.426437 -3.855647,-6.845246 z"
     id="path987"
     sodipodi:nodetypes="ccccc" /><path
     style="fill:#000000;fill-opacity:1;stroke:#000000;stroke-width:0.0976562px;stroke-linecap:butt;stroke-linejoin:miter;stroke-opacity:1"
     d="m 24.768169,65.96555 c 0,0 4.343927,13.031779 14.515073,16.210261 l 3.28443,-3.60228 3.70823,4.767724 3.92013,-5.085572 3.602281,4.661774 3.178483,-4.979622 3.81418,3.49633 c 0,0 11.760384,-4.767724 13.243673,-18.117351 l -5.297471,4.873674 -4.555825,-3.814179 -3.49633,6.462914 -4.873675,-4.449875 -4.661774,5.721268 -4.979625,-5.615319 -5.297471,4.979623 -4.873674,-5.403421 -3.920128,4.237977 z"
     id="path991" /></g><g
   inkscape:groupmode="layer"
   id="g1003"
   inkscape:label="face2"
   style="display:none"
   sodipodi:insensitive="true"><path
     style="fill:#000000;fill-opacity:1;stroke:#000000;stroke-width:0.138901px;stroke-linecap:butt;stroke-linejoin:miter;stroke-opacity:1"
     d="m 50.15698,52.068238 -5.803024,9.439059 5.731972,-3.745998 5.712882,3.605117 z"
     id="path999"
     sodipodi:nodetypes="ccccc" /><path
     id="path997-3"
     style="fill:#000000;fill-opacity:1;stroke-width:0.13797"
     d="m 40.508274,39.479255 c -1.603114,0.02337 -2.836569,5.923572 -6.785011,7.932283 -5.053859,2.571173 -12.641913,-2.207228 -10.015487,2.955435 2.276771,4.475507 7.258542,6.649372 11.837005,5.474092 -2.331613,2.256988 -7.496643,1.64032 -7.496643,1.64032 0,-1e-6 2.432679,1.953223 8.906746,-0.924111 6.474067,-2.877362 6.23436,-10.190773 6.23436,-10.190773 0,0 -0.01862,4.89e-4 -0.02728,5.86e-4 0.08168,-1.775434 -0.283942,-3.603688 -1.15242,-5.310821 -0.574527,-1.129364 -1.052401,-1.583539 -1.501274,-1.576996 z m 19.136238,0 c -0.448872,-0.0065 -0.926747,0.447632 -1.501273,1.576997 -0.868414,1.707006 -1.234216,3.535128 -1.152612,5.31044 -0.002,-1.4e-5 -0.01297,-1.95e-4 -0.01297,-1.95e-4 0,0 -0.239707,7.31341 6.234359,10.190772 6.474068,2.877363 8.906746,0.92411 8.906746,0.924111 0,0 -5.160488,0.618642 -7.491683,-1.635362 4.57324,1.164406 9.544498,-1.009731 11.818122,-5.47905 2.626425,-5.162663 -4.961627,-0.384261 -10.015488,-2.955436 -3.948441,-2.00871 -5.182087,-7.908914 -6.785202,-7.932282 z"
     sodipodi:nodetypes="cccccccccccscccsccccss" /><path
     id="path908"
     style="fill:#000000;fill-opacity:1;stroke:none;stroke-width:0.09071"
     d="m 50.3871,64.624213 c -1.57e-4,0.0019 -2.23e-4,0.0036 -3.81e-4,0.0055 -0.767582,9.328312 0.454355,13.274595 1.381111,14.883804 l 2.375221,-3.790665 1.769067,4.075051 c 1.017274,-1.383564 1.931159,-5.077087 1.681327,-14.158821 -2.277354,-0.624208 -4.696923,-0.987068 -7.206345,-1.014901 z m -2.599716,0.09175 c -2.444836,0.199726 -4.786937,0.711186 -6.974793,1.461793 0.02678,1.059689 -0.02242,2.457584 -0.172042,4.275892 -0.604202,7.342775 0.08871,9.99932 0.897598,10.856058 0.18303,-0.0469 0.367084,-0.0927 0.552178,-0.137522 l 1.2928,-4.585455 3.027535,3.634834 c 1.930882,-5.993659 1.31855,-15.289688 1.31855,-15.289688 0,0 0.02868,-0.106826 0.05817,-0.215912 z m 12.066651,1.643181 c -0.390997,2.958915 -1.1415,10.283988 0.244331,15.060042 0.05179,0.178493 0.09406,0.344246 0.129127,0.500108 1.095331,0.327454 2.14681,0.676783 3.152848,1.025771 3.18482,-3.706387 3.571609,-10.479374 3.608703,-12.783812 -0.620642,-0.455697 -1.270514,-0.892449 -1.947975,-1.306534 l -2.285195,2.742958 -1.296233,-4.599571 c -0.524568,-0.227057 -1.060042,-0.440313 -1.605606,-0.638962 z m -22.856332,1.439284 c -0.06702,0.03431 -0.134251,0.06844 -0.200843,0.103189 l -1.254082,4.488754 -2.059173,-2.46067 c -0.05989,0.04264 -0.119555,0.08537 -0.178909,0.128364 -1.204367,7.594554 0.03406,11.522321 1.325606,13.49678 1.057749,-0.392735 2.182565,-0.803376 3.373528,-1.198768 1.902837,-5.391915 -0.560129,-13.225691 -1.006127,-14.557649 z m 32.009888,4.003716 c -3.348968,8.305132 -1.384708,11.878862 -0.493431,12.954712 3.951862,1.309406 6.379509,1.536485 6.379509,-2.125739 0,-3.553161 -2.215329,-7.522472 -5.886078,-10.828973 z m -38.275909,0.381279 c -3.422728,3.227524 -5.472374,7.030099 -5.472374,10.447694 0,3.442285 2.0162,3.450114 5.412102,2.351378 1.923099,-4.113917 0.740552,-10.135988 0.06027,-12.799072 z" /></g><g
   inkscape:groupmode="layer"
   id="layer4"
   inkscape:label="face3"
   style="display:none"
   sodipodi:insensitive="true"><path
     id="path1059"
     style="fill:#000000;fill-opacity:1;stroke:none;stroke-width:0.114146px;stroke-linecap:butt;stroke-linejoin:miter;stroke-opacity:1"
     d="m 32.222583,41.703415 c -0.187937,-0.0032 -0.374525,0.0045 -0.559236,0.02365 -5.910758,0.61131 -13.234901,2.750779 -13.234901,2.750778 15.676358,-0.305655 26.855469,7.794189 26.855469,7.794189 0,0 -7.235363,-10.470014 -13.061332,-10.568617 z m 35.476303,0 c -5.825969,0.0986 -13.061332,10.568619 -13.061332,10.568618 0,0 11.178925,-8.099845 26.855275,-7.794189 0,0 -7.324146,-2.139468 -13.234904,-2.750778 -0.184709,-0.0191 -0.371109,-0.02683 -0.559039,-0.02365 z M 24.315857,46.14296 c -3.042313,-0.0047 -4.855919,0.614166 -4.855919,0.614166 11.989016,-1.198901 22.779086,6.114388 22.779086,6.114388 C 34.96132,47.326595 28.484956,46.149356 24.315857,46.14296 Z m 50.762369,0 c -4.169095,0.0064 -10.645269,1.183635 -17.922973,6.728554 0,0 10.79007,-7.313289 22.779083,-6.114388 0,0 -1.813794,-0.618834 -4.85611,-0.614166 z m -28.790473,4.690552 c 0,0 1.807522,1.979866 -1.833534,2.762984 l -0.428581,0.246239 c 0,0 4.011648,-0.223671 3.684615,-1.377105 -0.327033,-1.153437 -1.4225,-1.632118 -1.4225,-1.632118 z m 7.776069,0 c 0,0 -1.095467,0.478681 -1.4225,1.632118 -0.327033,1.153434 3.684807,1.377105 3.684807,1.377105 l -0.428773,-0.246239 c -3.641052,-0.783118 -1.833534,-2.762984 -1.833534,-2.762984 z"
     sodipodi:nodetypes="ccccccccscccccsccscccsccsccc" /><path
     id="rect1104"
     style="fill:#000000;fill-opacity:1;stroke:none;stroke-width:0.0976562"
     d="m 49.706973,54.628754 c 0,0 -4.615929,2.095649 -3.931046,3.779411 0.395606,0.972577 2.271827,0.861351 3.149796,-0.02174 0.883111,-0.888265 0.78125,-3.757667 0.78125,-3.757667 z m 0.5064,0.02785 c 0,0 -0.09808,2.845664 0.78125,3.719902 0.884487,0.879363 2.771766,0.957613 3.15571,-0.02174 0.657159,-1.676282 -3.93696,-3.698158 -3.93696,-3.698158 z" /><path
     id="path1157"
     style="fill:#000000;fill-opacity:1;stroke:none;stroke-width:0.144248"
     d="m 21.851563,55.0354 c -0.07897,-0.0012 -0.157395,-0.0011 -0.235176,5.73e-4 -0.973967,0.02121 -1.845442,0.278339 -2.384948,0.95272 -1.918241,2.397803 -1.078988,7.672882 -1.078988,7.672882 0,0 -1.678517,-10.790079 9.111596,-7.193374 0,0 -2.964315,-1.394885 -5.412484,-1.432801 z m 56.218153,0 c -2.448171,0.03792 -5.412486,1.4328 -5.412486,1.432801 10.790115,-3.596704 9.111593,7.193374 9.111593,7.193374 0,0 0.839258,-5.275079 -1.078987,-7.672882 -0.539507,-0.674381 -1.410978,-0.931514 -2.384951,-0.95272 -0.07778,-0.0017 -0.156203,-0.0018 -0.235169,-5.73e-4 z m -54.215432,2.524567 c -2.738402,0.02933 -4.308509,1.664955 -4.308509,6.581306 0,6.750123 3.014195,12.896156 7.950401,17.505646 0.545701,-2.303213 1.654954,-4.791038 3.830337,-6.734466 0,0 -0.498359,5.898477 0.169753,9.858513 5.072496,3.304103 11.399406,5.26657 18.261907,5.266571 6.76641,0 13.01305,-1.906891 18.049048,-5.127525 0.977424,-3.863217 0.382615,-10.890961 0.382615,-10.890961 2.412177,2.154973 3.513419,4.979344 3.98903,7.479095 4.842202,-4.592546 7.791517,-10.679249 7.791517,-17.356873 0,-10.448531 -7.348,-6.078869 -17.813299,-2.965354 -0.220225,2.904185 -1.188094,7.345671 -4.797745,10.278511 0,0 0.683233,-5.184428 0.365257,-9.118271 -2.615519,0.575995 -5.368412,0.965881 -8.206176,0.965881 -2.67973,0 -5.271054,-0.348149 -7.73449,-0.871849 -0.299653,3.921872 0.373078,9.024239 0.373078,9.024239 C 38.596551,68.561558 37.607189,64.201861 37.369563,61.296463 31.72219,59.626694 27.011275,57.52615 23.854284,57.559967 Z" /></g><g
   inkscape:groupmode="layer"
   id="layer5"
   inkscape:label="face4"
   style="display:none"
   sodipodi:insensitive="true"><path
     id="path1262"
     style="opacity:1;fill:#000000;fill-opacity:1;stroke:none;stroke-width:0.0976562"
     d="m 40.000755,38.584519 c -0.992529,-0.02418 -1.765678,0.284343 -1.941109,0.857544 -0.255172,0.833746 1.352752,0.272516 2.972603,0.76828 1.619848,0.495761 2.638274,1.860852 2.893448,1.027106 0.255172,-0.833744 -0.851121,-1.911502 -2.470971,-2.407264 -0.506202,-0.154926 -1.002822,-0.234674 -1.453971,-0.245666 z m 19.44847,0 c -0.451149,0.01099 -0.947578,0.09074 -1.453781,0.245666 -1.619848,0.495762 -2.726141,1.57352 -2.470969,2.407264 0.255171,0.833746 1.273599,-0.531345 2.893448,-1.027106 1.619849,-0.495764 3.227774,0.06547 2.972602,-0.76828 -0.175431,-0.573201 -0.948771,-0.881728 -1.9413,-0.857544 z M 32.988768,41.14933 c -5.27572,0 -9.552573,3.750483 -9.552573,8.376885 0,3.249417 2.111342,2.079604 5.195236,1.095199 a 5.7315221,5.217155 0 0 1 -1.227188,-3.22609 5.7315221,5.217155 0 0 1 5.731582,-5.21717 5.7315221,5.217155 0 0 1 5.731393,5.21717 5.7315221,5.217155 0 0 1 -1.292038,3.299523 c 2.959064,0.966119 4.966163,1.999839 4.966163,-1.168632 0,-4.626402 -4.276853,-8.376885 -9.552575,-8.376885 z m 33.203125,0 c -5.27572,0 -9.552574,3.750483 -9.552573,8.376885 -10e-7,3.171264 2.01044,2.133 4.973793,1.166152 a 5.7315221,5.217155 0 0 1 -1.289368,-3.297043 5.7315221,5.217155 0 0 1 5.731583,-5.21717 5.7315221,5.217155 0 0 1 5.731392,5.21717 5.7315221,5.217155 0 0 1 -1.229477,3.22857 c 3.079551,0.983872 5.187225,2.148932 5.187225,-1.097679 0,-4.626402 -4.276853,-8.376885 -9.552575,-8.376885 z m -43.0418,11.463165 a 5.0701923,1.6165832 0 0 0 -5.004502,1.616479 5.0701923,1.6165832 0 0 0 5.070305,1.616669 5.0701923,1.6165832 0 0 0 5.070114,-1.616669 5.0701923,1.6165832 0 0 0 -5.070114,-1.616479 5.0701923,1.6165832 0 0 0 -0.0658,0 z m 53.320312,0 a 5.0701923,1.6165832 0 0 0 -5.004502,1.616479 5.0701923,1.6165832 0 0 0 5.070114,1.616669 5.0701923,1.6165832 0 0 0 5.070305,-1.616669 5.0701923,1.6165832 0 0 0 -5.070305,-1.616479 5.0701923,1.6165832 0 0 0 -0.06561,0 z" /><path
     style="color:#000000;font-style:normal;font-variant:normal;font-weight:normal;font-stretch:normal;font-size:medium;line-height:normal;font-family:sans-serif;font-variant-ligatures:normal;font-variant-position:normal;font-variant-caps:normal;font-variant-numeric:normal;font-variant-alternates:normal;font-variant-east-asian:normal;font-feature-settings:normal;font-variation-settings:normal;text-indent:0;text-align:start;text-decoration:none;text-decoration-line:none;text-decoration-style:solid;text-decoration-color:#000000;letter-spacing:normal;word-spacing:normal;text-transform:none;writing-mode:lr-tb;direction:ltr;text-orientation:mixed;dominant-baseline:auto;baseline-shift:baseline;text-anchor:start;white-space:normal;shape-padding:0;shape-margin:0;inline-size:0;clip-rule:nonzero;display:inline;overflow:visible;visibility:visible;opacity:1;isolation:auto;mix-blend-mode:normal;color-interpolation:sRGB;color-interpolation-filters:linearRGB;solid-color:#000000;solid-opacity:1;vector-effect:none;fill:#000000;fill-opacity:1;fill-rule:nonzero;stroke:none;stroke-width:2.95898;stroke-linecap:round;stroke-linejoin:round;stroke-miterlimit:4;stroke-dasharray:none;stroke-dashoffset:0;stroke-opacity:1;color-rendering:auto;image-rendering:auto;shape-rendering:auto;text-rendering:auto;enable-background:accumulate;stop-color:#000000;stop-opacity:1"
     d="m 40.126953,59.261719 a 1.4794922,1.4794922 0 0 0 -1.080078,0.439453 1.4794922,1.4794922 0 0 0 0.01367,2.091797 l 5.015625,4.951172 a 1.4796401,1.4796401 0 0 0 2.128906,-0.05078 l 3.542969,-3.859375 4.115234,3.798828 a 1.4796401,1.4796401 0 0 0 2.052735,-0.04297 l 4.783203,-4.804688 a 1.4794922,1.4794922 0 0 0 -0.0039,-2.09375 1.4794922,1.4794922 0 0 0 -2.091796,0.0059 l -3.779297,3.794922 -4.160157,-3.839844 a 1.4796401,1.4796401 0 0 0 -2.091796,0.08789 L 45.0625,63.560547 41.140625,59.6875 a 1.4794922,1.4794922 0 0 0 -1.013672,-0.425781 z"
     id="path1526" /><path
     id="path1528"
     style="opacity:1;fill:#000000;fill-opacity:1;stroke:none;stroke-width:2.95898;stroke-linecap:round;stroke-linejoin:round;stroke-miterlimit:4;stroke-dasharray:none"
     d="m 52.22735,52.612431 c -1e-6,0.568154 -1.052755,0.247484 -2.351393,0.247484 -1.298638,0 -2.351393,0.32067 -2.351394,-0.247484 0,-0.568155 1.052755,-1.028735 2.351394,-1.028735 1.298639,0 2.351393,0.46058 2.351393,1.028735 z"
     sodipodi:nodetypes="sssss" /></g><g
   inkscape:groupmode="layer"
   id="layer6"
   inkscape:label="face5"
   style="display:none"
   sodipodi:insensitive="true"><path
     id="path1584"
     style="fill:#000000;fill-opacity:1;stroke:none;stroke-width:0.112338px;stroke-linecap:butt;stroke-linejoin:miter;stroke-opacity:1"
     d="m 21.780627,35.223793 c -1.271426,0 -2.529654,0.299106 -3.240905,0.50179 1.076364,-0.236642 3.369841,-0.279753 4.69603,3.065377 -1.332817,2.663798 -3.825955,9.473096 3.32033,12.923027 2.86051,1.380936 5.511941,2.366067 8.018118,2.439838 -3.34791,0.976548 -7.931859,1.260627 -14.027097,-0.339206 0,0 15.812026,7.082887 21.731239,-4.805518 0.8656,-1.738512 0.01394,-2.912442 -0.789437,-2.080883 -0.78119,0.808591 -1.661885,1.244146 -2.602422,1.391717 -3.51064,-2.410213 -11.941117,-12.110715 -11.340424,-11.058044 2.863673,5.018352 6.590039,9.06511 8.884568,10.871984 C 32.240004,46.99456 27.594428,42.119671 25.299083,39.448969 24.805327,38.29974 23.33831,35.223792 21.780627,35.223793 Z m -3.240905,0.50179 c -0.364802,0.0802 -0.589994,0.182331 -0.589994,0.182331 0,0 0.229712,-0.07966 0.589994,-0.182331 z m 59.684773,-0.50179 c -1.557691,0 -3.024703,3.075947 -3.518458,4.225178 -2.295345,2.670701 -6.940914,7.545591 -11.131544,8.684905 2.294529,-1.806874 6.020896,-5.853631 8.884568,-10.871983 0.600692,-1.052673 -7.829783,8.647832 -11.340424,11.058044 -0.940538,-0.147572 -1.821233,-0.583126 -2.602422,-1.391718 -0.803378,-0.831558 -1.655037,0.342371 -0.789436,2.080883 5.919214,11.888408 21.731239,4.805519 21.731239,4.805519 -6.095239,1.599832 -10.67919,1.315754 -14.027098,0.339205 2.506178,-0.07377 5.15761,-1.058903 8.018118,-2.439838 7.146287,-3.449931 4.653148,-10.259228 3.320331,-12.923026 1.326188,-3.345132 3.619665,-3.30202 4.69603,-3.065377 -0.711248,-0.202683 -1.96948,-0.501791 -3.240904,-0.501792 z m 3.240904,0.50179 c 0.360285,0.102669 0.589993,0.182331 0.589993,0.182331 0,0 -0.225196,-0.102128 -0.589993,-0.182331 z m -38.103611,8.690828 c -0.427562,0 -1.368032,0.617177 -0.374094,1.068965 0.343677,0.156215 1.368241,0.547132 1.368241,2.05214 0,1.505012 -2.599569,4.925536 -2.599569,4.925536 0,0 4.925334,-3.14681 3.009865,-6.430468 -0.718303,-1.231371 -1.147908,-1.616173 -1.404443,-1.616173 z m 13.281544,0 c -0.256536,0 -0.686141,0.384802 -1.404444,1.616173 -1.915468,3.283659 3.009866,6.430468 3.009866,6.430468 0,0 -2.599569,-3.420522 -2.599569,-4.925536 0,-1.505007 1.024566,-1.895925 1.36824,-2.05214 0.993938,-0.451788 0.05347,-1.068965 -0.374093,-1.068965 z" /><path
     id="path1653"
     style="fill:#000000;fill-opacity:1;stroke:none;stroke-width:0.129118px;stroke-linecap:butt;stroke-linejoin:miter;stroke-opacity:1"
     d="m 45.026737,54.206138 c -0.389418,-0.0051 -0.73464,0.232124 -0.994186,0.824248 -1.384247,3.157992 2.498164,2.156893 5.201452,3.773979 0,0 -2.519787,-4.576074 -4.207266,-4.598227 z m 11.047107,0 c -1.68748,0.02215 -4.207499,4.598227 -4.207499,4.598227 2.703288,-1.617086 6.5857,-0.615987 5.201451,-3.773979 -0.259544,-0.592124 -0.604533,-0.829359 -0.993952,-0.824248 z" /><path
     id="path1689-0"
     style="display:inline;fill:#000000;fill-opacity:1;stroke:none;stroke-width:0.0976562px;stroke-linecap:butt;stroke-linejoin:miter;stroke-opacity:1"
     d="m 18.500137,49.302864 c -5.095552,3.718375 -2.475303,13.896271 3.997422,15.824318 6.472727,1.928046 18.450546,11.994744 18.450546,11.994744 0,0 -0.06789,-1.828972 -0.396347,-4.079247 l 2.902222,1.775741 3.240394,-3.367232 3.587723,4.275321 3.959083,-4.085922 2.136612,4.146576 4.168701,-2.728653 c -0.326421,2.242868 -0.394249,4.063416 -0.394249,4.063416 0,0 11.97782,-10.066698 18.450546,-11.994744 6.472725,-1.928047 9.092973,-12.105943 3.997422,-15.824318 0,0 2.892056,2.203525 0.275421,6.610489 -2.616636,4.406963 -18.040927,7.023643 -20.244407,10.328865 -0.419373,0.629058 -0.768446,1.413241 -1.059532,2.269935 l -3.959465,2.591325 -2.556611,-4.962921 -4.599571,4.748153 -3.593826,-4.28524 -3.93753,4.089927 -3.353883,-2.052306 C 39.271333,67.734479 38.909312,66.902499 38.469124,66.242218 36.265642,62.936996 20.841352,60.320316 18.224716,55.913353 c -2.616634,-4.406964 0.275421,-6.610489 0.275421,-6.610489 z" /></g><g
   inkscape:groupmode="layer"
   id="layer7"
   inkscape:label="face6"
   style="display:inline"><path
     id="path1828"
     style="opacity:1;fill:#000000;fill-opacity:1;stroke:none;stroke-width:28.3221;stroke-linecap:round;stroke-linejoin:round;stroke-miterlimit:4;stroke-dasharray:none;stroke-opacity:0.955466"
     d="m 362.43945,629.35938 a 7.6000256,7.6000256 0 0 0 -3.61914,0.91992 7.6000256,7.6000256 0 0 0 -3.08008,10.30078 c 17.25471,32.02499 13.74144,58.65075 6.17969,78.08008 -7.56175,19.42932 -19.14062,30.75976 -19.14062,30.75976 a 7.6000256,7.6000256 0 0 0 -0.11914,10.75977 7.6000256,7.6000256 0 0 0 10.75976,0.0996 c 0,0 13.89779,-13.58538 22.66016,-36.09961 0.78871,-2.02652 1.53355,-4.13542 2.22656,-6.31641 20.65441,8.91957 73.43206,-6.57031 136.27539,-6.57031 64.67508,0 120.4917,16.41172 140.53125,5.73242 0.76494,2.47978 1.59732,4.87005 2.48633,7.1543 8.76238,22.51423 22.67969,36.09961 22.67969,36.09961 a 7.6000256,7.6000256 0 0 0 10.74023,-0.0996 7.6000256,7.6000256 0 0 0 -0.0996,-10.75977 c 0,0 -11.57887,-11.33044 -19.14062,-30.75976 -7.56176,-19.42933 -11.07306,-46.05509 6.18164,-78.08008 a 7.6000256,7.6000256 0 0 0 -3.08008,-10.30078 7.6000256,7.6000256 0 0 0 -3.56055,-0.91992 7.6000256,7.6000256 0 0 0 -6.74023,4 c -8.48972,15.75705 -12.56191,30.81301 -13.72266,44.65039 -22.64457,-22.01118 -74.49996,-37.40235 -134.86133,-37.40235 -11.1789,0 -22.05117,0.54688 -32.51562,1.54688 v 49.45117 h -46.6504 V 650.4082 c -23.41477,6.34485 -42.29032,15.41947 -54.13672,26.16016 -1.31242,-13.44027 -5.3776,-27.99593 -13.57422,-43.20898 a 7.6000256,7.6000256 0 0 0 -6.67969,-4 z m 89.96094,138.78124 a 7.6000256,7.6000256 0 0 0 -5.90039,2.7793 7.6000256,7.6000256 0 0 0 1.06055,10.69922 c 0,0 15.02532,12.34122 38.35937,18.60156 23.33405,6.26036 55.86082,6.36683 89.51953,-16.82031 a 7.6000256,7.6000256 0 0 0 1.94141,-10.56055 7.6000256,7.6000256 0 0 0 -10.56055,-1.93945 c -29.95718,20.63718 -56.82413,20.04122 -76.96093,14.63867 -20.13682,-5.40256 -32.66016,-15.67969 -32.66016,-15.67968 a 7.6000256,7.6000256 0 0 0 -4.79883,-1.71876 z"
     transform="scale(0.09765625)" /><path
     id="rect1942"
     style="opacity:1;fill:#000000;fill-opacity:1;stroke:none;stroke-width:1.95312;stroke-linecap:round;stroke-linejoin:round;stroke-miterlimit:4;stroke-dasharray:none;stroke-opacity:0.955466"
     d="M 50,46.810923 53.727494,57.85535 H 46.272506 Z"
     sodipodi:nodetypes="cccc" /><path
     id="path1792-03-1"
     style="display:inline;opacity:1;fill:#000000;fill-opacity:1;stroke:none;stroke-width:3.24219;stroke-linecap:round;stroke-linejoin:round;stroke-miterlimit:4;stroke-dasharray:none;stroke-opacity:0.955466"
     d="m 23.45848,49.216652 c 0,3.69792 4.45026,6.69575 9.93996,6.69575 5.4897,0 9.93996,-2.99783 9.93996,-6.69575 0,0 -4.31217,4.21066 -9.80187,4.21066 -5.4897,0 -10.07805,-4.21066 -10.07805,-4.21066 z m 33.20313,0 c 0,3.69792 4.45026,6.69575 9.93996,6.69575 5.4897,0 9.93995,-2.99783 9.93995,-6.69575 0,0 -4.58835,4.21066 -10.07805,4.21066 -5.4897,0 -9.80186,-4.21066 -9.80186,-4.21066 z" /></g><g
   inkscape:groupmode="layer"
   id="layer8"
   inkscape:label="face7"
   style="display:none"
   sodipodi:insensitive="true"><path
     id="path2194"
     style="opacity:1;fill:#000000;fill-opacity:1;stroke:none;stroke-width:15.82;stroke-linecap:round;stroke-linejoin:round;stroke-miterlimit:4;stroke-dasharray:none;stroke-opacity:0.955466"
     d="m 585.58008,628.88086 a 8.5302271,8.5302271 0 0 0 -5.14063,1.79883 c 0,0 -5.43663,4.14647 -10.20898,11.12109 a 64.32273,19.791609 0 0 0 -39.68164,-8.99414 v 17.56055 h -29.6875 v -17.64063 a 64.32273,19.791609 0 0 0 -43.04492,10.32617 c -4.94654,-7.72772 -11.03711,-12.37304 -11.03711,-12.37304 a 8.5302271,8.5302271 0 0 0 -5.09961,-1.7793 8.5302271,8.5302271 0 0 0 -6.85938,3.29883 8.5302271,8.5302271 0 0 0 1.51953,11.96094 c 0,0 4.16039,3.28897 7.38086,8.5 3.22048,5.21102 5.19611,10.85517 1.87891,18.16015 a 8.5302271,8.5302271 0 0 0 4.24023,11.29883 8.5302271,8.5302271 0 0 0 11.2793,-4.23828 c 2.14339,-4.72008 3.01357,-9.38079 3.03906,-13.79688 a 64.32273,19.791609 0 0 0 50.99414,7.73047 64.32273,19.791609 0 0 0 47.93164,-6.59375 c 0.16041,4.07617 1.05544,8.34353 3.01563,12.66016 a 8.5302271,8.5302271 0 0 0 11.28125,4.23828 8.5302271,8.5302271 0 0 0 4.23828,-11.29883 c -3.3172,-7.30498 -1.33962,-12.94913 1.88086,-18.16015 3.22047,-5.21103 7.38086,-8.5 7.38086,-8.5 a 8.5302271,8.5302271 0 0 0 1.51953,-11.96094 8.5302271,8.5302271 0 0 0 -6.82031,-3.31836 z"
     transform="scale(0.09765625)" /><path
     id="path2213"
     style="opacity:1;fill:#000000;fill-opacity:1;stroke:none;stroke-width:17.0851;stroke-linecap:round;stroke-linejoin:round;stroke-miterlimit:4;stroke-dasharray:none;stroke-opacity:0.955466"
     d="m 249.00391,442.36719 a 127.23177,94.716982 0 0 0 -63.81055,82.11133 127.23177,94.716982 0 0 0 127.23242,94.71679 127.23177,94.716982 0 0 0 127.23242,-94.71679 127.23177,94.716982 0 0 0 -60.64062,-80.70704 94.010137,78.45959 0 0 1 28.125,55.9668 94.010137,78.45959 0 0 1 -94.00977,78.45899 94.010137,78.45959 0 0 1 -94.00976,-78.45899 94.010137,78.45959 0 0 1 29.88086,-57.37109 z m 400.07421,0 a 127.23177,94.716982 0 0 0 -63.8125,82.11133 127.23177,94.716982 0 0 0 127.23243,94.71679 127.23177,94.716982 0 0 0 127.23242,-94.71679 127.23177,94.716982 0 0 0 -60.64063,-80.70704 94.010137,78.45959 0 0 1 28.125,55.9668 94.010137,78.45959 0 0 1 -94.00976,78.45899 94.010137,78.45959 0 0 1 -94.00977,-78.45899 94.010137,78.45959 0 0 1 29.88281,-57.37109 z"
     transform="scale(0.09765625)" /><path
     style="fill:#000000;fill-opacity:1;stroke:none;stroke-width:0.0976562px;stroke-linecap:butt;stroke-linejoin:miter;stroke-opacity:1"
     d="m 50.114076,56.740732 c 0,0 -5.158519,-2.11713 -3.698119,0.428852 1.545045,2.693547 3.636037,3.375539 3.636037,3.375539 0,0 2.938169,-1.367851 3.87476,-3.622276 0.824394,-1.984362 -3.812678,-0.182115 -3.812678,-0.182115 z"
     id="path2313"
     sodipodi:nodetypes="cscsc" /></g><g
   inkscape:groupmode="layer"
   id="layer9"
   inkscape:label="face8"
   style="display:none"
   sodipodi:insensitive="true"><path
     id="path2343"
     style="opacity:1;fill:#000000;fill-opacity:1;stroke:none;stroke-width:3.51006;stroke-linecap:round;stroke-linejoin:round;stroke-miterlimit:4;stroke-dasharray:none;stroke-opacity:0.955466"
     d="m 33.222006,62.744331 c -0.954949,-0.02882 -1.482964,0.417214 -1.482964,1.658059 0,4.38902 6.607091,12.161357 15.342904,13.90171 v -4.324722 h 7.136153 v 4.3087 c 8.696531,-1.771372 15.263748,-9.509935 15.263748,-13.885688 0,-2.679758 -2.47632,-1.647999 -6.382942,-0.135804 v 5.589676 h -7.136344 v -3.289413 c -1.696897,0.377214 -3.492765,0.624657 -5.352021,0.624657 -1.859322,0 -3.655451,-0.24742 -5.352402,-0.624657 v 2.734375 h -7.136153 v -5.034638 c -2.097684,-0.811983 -3.792597,-1.488838 -4.899979,-1.522255 z" /><path
     id="rect2346"
     style="opacity:1;fill:#000000;fill-opacity:1;stroke:none;stroke-width:16.6836;stroke-linecap:round;stroke-linejoin:round;stroke-miterlimit:4;stroke-dasharray:none;stroke-opacity:0.955466"
     d="m 344.46289,397.98047 -90.8418,131.08398 182.0586,-0.53906 z m 340,0 -90.8418,131.08398 182.0586,-0.53906 z"
     transform="scale(0.09765625)" /><path
     id="rect2346-9-0"
     style="display:inline;opacity:1;fill:#000000;fill-opacity:1;stroke:none;stroke-width:1.12541;stroke-linecap:round;stroke-linejoin:round;stroke-miterlimit:4;stroke-dasharray:none;stroke-opacity:0.955466"
     d="m 50.07085,50.478349 5.650185,9.589903 -11.277153,0.03957 z"
     sodipodi:nodetypes="cccc" /></g><g
   inkscape:groupmode="layer"
   id="layer10"
   inkscape:label="face9"
   style="display:none"
   sodipodi:insensitive="true"><path
     id="path2444"
     style="fill:#000000;fill-opacity:1;stroke:none;stroke-width:0.0976562px;stroke-linecap:butt;stroke-linejoin:miter;stroke-opacity:1"
     d="m 36.839294,34.926034 c -0.296956,-0.0048 -0.372506,0.01946 -0.372506,0.01946 0,0 1.495128,6.512385 8.403779,7.527732 0,0 0.997554,-2.924249 -0.416564,-5.033493 -0.52621,0.940231 -1.662194,2.534616 -3.254318,2.380563 -1.469253,-0.831729 -0.680644,-3.474527 -0.356293,-4.382516 -2.399375,-0.415031 -3.509169,-0.50371 -4.004098,-0.511741 z m 25.187875,0 c -0.494929,0.008 -1.60472,0.09671 -4.004098,0.511741 0.324348,0.907989 1.112961,3.550787 -0.356293,4.382516 -1.592124,0.154053 -2.728108,-1.440332 -3.254317,-2.380563 -1.414116,2.109243 -0.416565,5.033493 -0.416565,5.033493 6.908648,-1.015347 8.403779,-7.527732 8.403779,-7.527732 0,0 -0.07555,-0.02428 -0.372506,-0.01946 z M 42.831803,36.37066 c 0,0 -1.911119,1.218476 -1.26934,2.637481 1.852387,-0.502541 1.26934,-2.637481 1.26934,-2.637481 z m 13.202857,0 c 0,0 -0.583044,2.13494 1.26934,2.637481 0.641779,-1.419005 -1.26934,-2.637481 -1.26934,-2.637481 z m -25.269127,5.247306 c -7.84096,1.39237 -8.7698,2.195359 -8.769797,2.195359 -2e-6,0 5.50656,21.999081 21.047784,10.898208 l 0.59471,4.995346 1.070405,-5.233193 -1.883316,-2.471924 c -0.357713,-2.519219 -1.302879,-6.220068 -3.804781,-8.530617 -0.415436,2.5586 -1.590496,7.082521 -4.764747,7.938576 -3.370131,-0.793248 -3.536338,-7.460565 -3.490258,-9.791755 z m 38.27381,0 c 0.04608,2.33119 -0.120125,8.998508 -3.490256,9.791756 -3.174251,-0.856055 -4.349309,-5.379977 -4.764747,-7.938576 -2.563128,2.367093 -3.49317,6.194745 -3.83072,8.714676 l -1.743125,2.287864 1.070406,5.233193 0.585937,-4.921341 C 72.32719,65.711219 77.809145,43.813324 77.809145,43.813324 c 0,0 -0.928843,-0.802988 -8.769802,-2.195358 z m -33.835984,0.631141 c 0,0 -2.913033,4.249807 -0.765991,7.020187 3.257255,-2.561349 0.765991,-7.020187 0.765991,-7.020187 z m 29.398158,0 c 0,0 -2.491264,4.458838 0.765991,7.020187 2.147042,-2.770381 -0.765991,-7.020187 -0.765991,-7.020187 z" /><path
     id="path2587"
     style="fill:#000000;fill-opacity:1;stroke:none;stroke-width:0.0976562px;stroke-linecap:butt;stroke-linejoin:miter;stroke-opacity:1"
     d="m 48.478127,53.503419 c 0,0 -2.02198,1.070439 -2.02198,3.092385 0,2.021943 3.330239,2.973311 2.497673,5.708883 0,0 1.308267,-2.140811 -0.356865,-4.400633 -1.665132,-2.259822 -0.118828,-4.400635 -0.118828,-4.400635 z m 2.848624,0 c 0,0 1.546115,2.140813 -0.119017,4.400635 -1.665132,2.259822 -0.356676,4.400633 -0.356676,4.400633 -0.832566,-2.735574 2.497673,-3.68694 2.497673,-5.708883 0,-2.021946 -2.02198,-3.092385 -2.02198,-3.092385 z" /><path
     id="path2930"
     style="fill:#000000;fill-opacity:1;stroke:none;stroke-width:1.03412px;stroke-linecap:butt;stroke-linejoin:miter;stroke-opacity:1"
     d="m 866.53711,445.58398 c 0,0 60.10815,39.15389 33.88867,100.46875 l 10.58203,39.67969 -21.6289,-20.00586 c -0.9836,1.41737 -1.99865,2.84115 -3.07813,4.27735 -5.06294,6.73601 -9.71462,12.33563 -14.07617,17.02734 l 8.33398,38.89258 -30.68359,-20.80274 c -13.5658,7.13669 -25.89242,6.67834 -42.64844,8.97266 l -2.17773,54.45703 -41.8418,-41.8418 c -7.52217,3.30562 -15.76456,7.47202 -24.85937,12.74414 l 2.15039,55.89258 -36.62305,-34.58984 c -9.1032,4.93585 -18.09672,8.69082 -27.00586,11.50976 l 2.73242,49.87305 -33.64062,-43.45117 c -9.22309,0.9978 -18.38176,1.25627 -27.50391,1.05469 l -4.62305,57.01172 -47.16992,-61.23829 c -6.21957,-0.64972 -12.44611,-1.2645 -18.68945,-1.76171 l 12.27148,93.44921 -78.11914,-90.54687 c -6.37134,1.39159 -12.78841,3.20453 -19.25976,5.51758 L 489.60547,789.125 415.20508,708.73828 c -1.07833,0.8306 -2.15419,1.64688 -3.23633,2.51367 -4.07513,3.26416 -8.09623,6.4382 -12.08594,9.5586 l 22.73633,64.66015 -57.36523,-38.70312 c -8.3479,5.96079 -16.50049,11.55937 -24.41407,16.70312 l 14.79493,35.39844 -38.85743,-20.69531 c -17.57761,9.99568 -33.93402,17.5171 -49.04687,22.2539 l 8.00781,20.3086 -32.69922,-14.97656 c -28.84832,3.06001 -52.11941,-7.03378 -69.59375,-33.22461 3.6868,57.36911 35.92783,78.69877 71.95703,83.09375 l 5.49024,-20.13282 25.9707,20.15039 c 14.22718,-1.48409 27.94227,-4.71534 39.625,-8.57617 l -3.48242,-29.84375 37.77539,24.97071 c 15.41844,0.20517 32.04466,2.98497 50.57422,7.00781 l -11.61914,-33.19531 68.04297,46.39062 c 9.58234,2.19632 19.61285,4.39872 30.16406,6.50195 l -30.00391,-67.50781 83.28125,74.86914 c 7.7866,-0.23556 15.2858,-1.42941 22.5293,-3.38476 l -43.69727,-109.24024 80.32032,92.18555 c 6.33142,-4.16915 12.44838,-8.80027 18.36914,-13.74219 l -10.99805,-57.73828 37.57227,32.78906 c 10.0714,-10.319 19.5846,-20.78457 28.67578,-30.35547 l -0.48047,-36.53515 18.28125,18.80273 c 10.41778,-9.51752 20.3663,-16.61864 30.10547,-19.38672 l 2.76562,-21.33984 23.66406,18.62891 c 14.3236,-1.44672 27.14667,-3.57507 38.6875,-6.25586 l 7.07032,-45.25586 31.42968,32.57226 c 14.11143,-6.28442 25.62508,-13.55659 35.55665,-21.2207 v -45.45508 l 32.7539,15.06641 c 6.11742,-6.25489 12.05869,-12.28095 18.34375,-17.71289 1.1272,-0.9742 2.21652,-1.97427 3.26953,-2.9961 l -9.30273,-47.94531 30.14453,13.01758 c 2.23076,-7.23485 3.68061,-14.87458 4.46875,-22.80078 l -22.43555,-38.9336 22.33203,5.89844 c -1.47482,-16.12574 -4.77265,-32.6765 -9.10156,-48.80273 -14.24232,-53.05617 -65.00781,-70.53907 -65.00781,-70.53907 z"
     transform="scale(0.09765625)" /></g></svg>
