<?xml version="1.0" encoding="UTF-8" standalone="no"?>
<svg
   xmlns:dc="http://purl.org/dc/elements/1.1/"
   xmlns:cc="http://creativecommons.org/ns#"
   xmlns:rdf="http://www.w3.org/1999/02/22-rdf-syntax-ns#"
   xmlns:svg="http://www.w3.org/2000/svg"
   xmlns="http://www.w3.org/2000/svg"
   xmlns:sodipodi="http://sodipodi.sourceforge.net/DTD/sodipodi-0.dtd"
   xmlns:inkscape="http://www.inkscape.org/namespaces/inkscape"
   width="64"
   height="64"
   viewBox="0 0 100 100"
   version="1.1"
   id="svg8"
   inkscape:version="1.0.1 (c497b03c, 2020-09-10)"
   sodipodi:docname="trash.svg">
  <defs
     id="defs2" />
  <sodipodi:namedview
     id="base"
     pagecolor="#ffffff"
     bordercolor="#666666"
     borderopacity="1.0"
     inkscape:pageopacity="0.0"
     inkscape:pageshadow="2"
     inkscape:zoom="1.414741"
     inkscape:cx="71.120473"
     inkscape:cy="9.2270145"
     inkscape:document-units="mm"
     inkscape:current-layer="layer1"
     inkscape:document-rotation="0"
     showgrid="false"
     units="px"
     inkscape:window-width="1438"
     inkscape:window-height="855"
     inkscape:window-x="0"
     inkscape:window-y="23"
     inkscape:window-maximized="0"
     inkscape:snap-global="true" />
  <metadata
     id="metadata5">
    <rdf:RDF>
      <cc:Work
         rdf:about="">
        <dc:format>image/svg+xml</dc:format>
        <dc:type
           rdf:resource="http://purl.org/dc/dcmitype/StillImage" />
        <dc:title />
      </cc:Work>
    </rdf:RDF>
  </metadata>
  <g
     inkscape:label="Layer 1"
     inkscape:groupmode="layer"
     id="layer1">
    <path
       id="path1025"
       style="fill:#ffffff;stroke-width:0.490094"
       d="m 49.653104,7.1288121 c -4.456909,-0.00906 -8.878413,0.1452626 -10.050758,0.4709489 -2.996801,0.8325296 -5.860459,4.561627 -5.860459,7.631686 v 1.192308 l -7.718984,0.0023 c -6.87757,0.0016 -7.895431,0.108873 -9.34089,0.990144 -2.069286,1.261609 -3.032458,3.590198 -3.032458,7.323847 v 2.956646 h 36.329764 0.02068 0.02068 36.329769 v -2.956646 c 0,-3.733649 -0.963177,-6.062238 -3.032465,-7.323847 -1.445452,-0.881271 -2.463311,-0.988487 -9.340882,-0.990143 l -7.718984,-0.0023 v -1.192308 c 0,-3.070059 -2.863664,-6.7991567 -5.860465,-7.6316862 C 59.225305,7.2740755 54.8038,7.1197486 50.346891,7.1288129 c -0.117164,2.258e-4 -0.22974,0.00414 -0.346892,0.00459 -0.117153,-4.66e-4 -0.229729,-0.00437 -0.346893,-0.00459 z m 0.06892,5.3757199 c 0.103356,0 0.176517,0.0022 0.277978,0.0023 0.101461,-1.51e-4 0.174623,-0.0023 0.277977,-0.0023 9.551945,0 10.58833,0.270538 10.58833,2.770565 v 1.148658 H 50.085003 49.999997 49.915003 39.13369 v -1.148658 c 0,-2.500027 1.036385,-2.770565 10.588329,-2.770565 z m -32.752844,19.113676 0.287165,2.081368 c 6.971825,50.282678 8.117276,58.225198 8.477099,58.811309 0.141768,0.230916 12.197075,0.353251 24.266556,0.360681 12.06948,-0.0075 24.124799,-0.129765 24.266558,-0.360681 0.359819,-0.586111 1.505275,-8.528631 8.477097,-58.811309 l 0.287164,-2.081368 H 50.140132 49.999997 49.859862 Z m 16.237435,9.89684 c 0.590225,-0.0099 1.076709,0.226688 1.601224,0.751223 1.004674,1.004662 1.156901,2.270342 3.335707,27.822803 0.275813,3.234622 0.63555,7.108997 0.799469,8.610344 0.238092,2.180637 0.131737,2.896136 -0.526091,3.553949 -0.990641,0.990649 -3.359819,1.081684 -4.125978,0.158515 -0.303537,-0.365741 -0.994988,-5.604394 -1.536902,-11.640504 -0.541915,-6.036114 -1.313047,-14.571418 -1.713798,-18.968945 -0.790951,-8.679189 -0.644222,-9.650362 1.536905,-10.19779 0.225027,-0.05647 0.432723,-0.08629 0.629464,-0.0896 z m 33.586766,0 c 0.196747,0.0033 0.404445,0.03312 0.629469,0.0896 2.181123,0.547428 2.327858,1.518601 1.536904,10.19779 -0.400751,4.397527 -1.171885,12.932831 -1.713796,18.968945 -0.541911,6.036109 -1.233368,11.274763 -1.536904,11.640504 -0.766159,0.923169 -3.135338,0.832134 -4.125978,-0.158515 -0.657829,-0.657813 -0.764183,-1.373312 -0.526091,-3.553949 0.163918,-1.501347 0.523655,-5.375722 0.799469,-8.610344 2.178806,-25.552461 2.331033,-26.818141 3.335707,-27.822803 0.524526,-0.524535 1.011002,-0.761145 1.60122,-0.751223 z M 50,41.521948 c 0.608215,-0.01365 1.243,0.163842 1.801096,0.572033 0.951802,0.696295 0.977326,1.267813 0.948791,20.181927 l -0.02757,19.465165 -1.127977,0.912035 c -0.711441,0.576087 -1.157666,0.860261 -1.59434,0.83852 -0.436674,0.02174 -0.882899,-0.262433 -1.594339,-0.83852 L 47.27768,81.741065 47.250106,62.2759 c -0.02857,-18.914114 -0.0032,-19.485633 0.948791,-20.181928 0.558096,-0.408189 1.192882,-0.585677 1.801096,-0.572032 z" />
  </g>
</svg>
